<?xml version="1.0" encoding="utf-8" standalone="no"?>
<!DOCTYPE svg PUBLIC "-//W3C//DTD SVG 1.1//EN"
  "http://www.w3.org/Graphics/SVG/1.1/DTD/svg11.dtd">
<svg height="288pt" version="1.1" viewBox="0 0 432 288" width="432pt" xmlns="http://www.w3.org/2000/svg" xmlns:xlink="http://www.w3.org/1999/xlink">
 <metadata>
  <rdf:RDF xmlns:cc="http://creativecommons.org/ns#" xmlns:dc="http://purl.org/dc/elements/1.1/" xmlns:rdf="http://www.w3.org/1999/02/22-rdf-syntax-ns#">
   <cc:Work>
    <dc:type rdf:resource="http://purl.org/dc/dcmitype/StillImage"/>
    <dc:date>2023-02-05T11:30:30.252046</dc:date>
    <dc:format>image/svg+xml</dc:format>
    <dc:creator>
     <cc:Agent>
      <dc:title>Matplotlib v3.4.2, https://matplotlib.org/</dc:title>
     </cc:Agent>
    </dc:creator>
   </cc:Work>
  </rdf:RDF>
 </metadata>
 <defs>
  <style type="text/css">*{stroke-linecap:butt;stroke-linejoin:round;}</style>
 </defs>
 <g id="figure_1">
  <g id="patch_1">
   <path d="M 0 288 
L 432 288 
L 432 0 
L 0 0 
z
" style="fill:#ffffff;"/>
  </g>
  <g id="axes_1">
   <g id="matplotlib.axis_1"/>
   <g id="matplotlib.axis_2">
    <g id="text_1">
     <text style="fill:#262626;font-family:Arial;font-size:18px;font-stretch:normal;font-style:normal;font-weight:normal;text-anchor:middle;" transform="rotate(-90, 104.891563, 143.28)" x="104.891563" y="143.28">g</text>
    </g>
   </g>
   <g id="patch_2">
    <path d="M 308.376 143.28 
C 308.376 122.463427 300.902736 102.323081 287.323962 86.545039 
C 273.745188 70.766997 254.943117 60.37636 234.358896 57.274816 
L 221.4 143.28 
L 308.376 143.28 
z
" style="fill:#8dd3c7;stroke:#ffffff;stroke-linejoin:miter;"/>
   </g>
   <g id="patch_3">
    <path d="M 234.358896 57.274816 
C 220.905596 55.24773 207.162474 56.405275 194.237777 60.654107 
C 181.313079 64.902939 169.563819 72.125694 159.937457 81.739929 
L 221.4 143.28 
L 234.358896 57.274816 
z
" style="fill:#ffffb3;stroke:#ffffff;stroke-linejoin:miter;"/>
   </g>
   <g id="patch_4">
    <path d="M 159.937457 81.739929 
C 148.23727 93.425375 140.10871 108.20872 136.509373 124.348385 
C 132.910037 140.48805 133.987043 157.324345 139.613515 172.873842 
L 221.4 143.28 
L 159.937457 81.739929 
z
" style="fill:#bebada;stroke:#ffffff;stroke-linejoin:miter;"/>
   </g>
   <g id="patch_5">
    <path d="M 139.613515 172.873842 
C 142.763553 181.579387 147.283442 189.726417 153.002252 197.006834 
C 158.721063 204.287251 165.565785 210.60811 173.277574 215.730374 
L 221.4 143.28 
L 139.613515 172.873842 
z
" style="fill:#fb8072;stroke:#ffffff;stroke-linejoin:miter;"/>
   </g>
   <g id="patch_6">
    <path d="M 173.277574 215.730374 
C 189.139324 226.265943 208.030365 231.306534 227.032281 230.073444 
C 246.034197 228.840354 264.115348 221.400528 278.482434 208.903322 
L 221.4 143.28 
L 173.277574 215.730374 
z
" style="fill:#80b1d3;stroke:#ffffff;stroke-linejoin:miter;"/>
   </g>
   <g id="patch_7">
    <path d="M 278.482434 208.903322 
C 287.86801 200.73928 295.393826 190.655932 300.550577 179.335662 
C 305.707328 168.015391 308.376003 155.719457 308.376 143.27998 
L 221.4 143.28 
L 278.482434 208.903322 
z
" style="fill:#fdb462;stroke:#ffffff;stroke-linejoin:miter;"/>
   </g>
   <g id="text_2">
    <text style="fill:#262626;font-family:Arial;font-size:18px;font-stretch:normal;font-style:normal;font-weight:normal;text-anchor:middle;" transform="rotate(-0, 260.954377, 113.892305)" x="260.954377" y="113.892305">23%</text>
   </g>
   <g id="text_3">
    <text style="fill:#262626;font-family:Arial;font-size:18px;font-stretch:normal;font-style:normal;font-weight:normal;text-anchor:middle;" transform="rotate(-0, 205.102666, 98.357745)" x="205.102666" y="98.357745">15%</text>
   </g>
   <g id="text_4">
    <text style="fill:#262626;font-family:Arial;font-size:18px;font-stretch:normal;font-style:normal;font-weight:normal;text-anchor:middle;" transform="rotate(-0, 170.465624, 136.574312)" x="170.465624" y="136.574312">18%</text>
   </g>
   <g id="text_5">
    <text style="fill:#262626;font-family:Arial;font-size:18px;font-stretch:normal;font-style:normal;font-weight:normal;text-anchor:middle;" transform="rotate(-0, 180.361351, 180.169382)" x="180.361351" y="180.169382">10%</text>
   </g>
   <g id="text_6">
    <text style="fill:#262626;font-family:Arial;font-size:18px;font-stretch:normal;font-style:normal;font-weight:normal;text-anchor:middle;" transform="rotate(-0, 224.779369, 200.009348)" x="224.779369" y="200.009348">21%</text>
   </g>
   <g id="text_7">
    <text style="fill:#262626;font-family:Arial;font-size:18px;font-stretch:normal;font-style:normal;font-weight:normal;text-anchor:middle;" transform="rotate(-0, 268.890346, 169.566678)" x="268.890346" y="169.566678">14%</text>
   </g>
  </g>
 </g>
</svg>
