<?xml version="1.0" encoding="utf-8" standalone="no"?>
<!DOCTYPE svg PUBLIC "-//W3C//DTD SVG 1.1//EN"
  "http://www.w3.org/Graphics/SVG/1.1/DTD/svg11.dtd">
<svg height="288pt" version="1.1" viewBox="0 0 432 288" width="432pt" xmlns="http://www.w3.org/2000/svg" xmlns:xlink="http://www.w3.org/1999/xlink">
 <metadata>
  <rdf:RDF xmlns:cc="http://creativecommons.org/ns#" xmlns:dc="http://purl.org/dc/elements/1.1/" xmlns:rdf="http://www.w3.org/1999/02/22-rdf-syntax-ns#">
   <cc:Work>
    <dc:type rdf:resource="http://purl.org/dc/dcmitype/StillImage"/>
    <dc:date>2023-02-20T08:56:41.393552</dc:date>
    <dc:format>image/svg+xml</dc:format>
    <dc:creator>
     <cc:Agent>
      <dc:title>Matplotlib v3.4.2, https://matplotlib.org/</dc:title>
     </cc:Agent>
    </dc:creator>
   </cc:Work>
  </rdf:RDF>
 </metadata>
 <defs>
  <style type="text/css">*{stroke-linecap:butt;stroke-linejoin:round;}</style>
 </defs>
 <g id="figure_1">
  <g id="patch_1">
   <path d="M 0 288 
L 432 288 
L 432 0 
L 0 0 
z
" style="fill:#ffffff;"/>
  </g>
  <g id="axes_1">
   <g id="matplotlib.axis_1"/>
   <g id="matplotlib.axis_2">
    <g id="text_1">
     <text style="fill:#262626;font-family:Arial;font-size:18px;font-stretch:normal;font-style:normal;font-weight:normal;text-anchor:middle;" transform="rotate(-90, 104.891563, 143.28)" x="104.891563" y="143.28">g</text>
    </g>
   </g>
   <g id="patch_2">
    <path d="M 308.376 143.28 
C 308.376 122.420014 300.871533 102.240519 287.241491 86.449352 
C 273.61145 70.658184 254.745106 60.285618 234.109016 57.237537 
L 221.4 143.28 
L 308.376 143.28 
z
" style="fill:#8dd3c7;stroke:#ffffff;stroke-linejoin:miter;"/>
   </g>
   <g id="patch_3">
    <path d="M 234.109016 57.237537 
C 212.336758 54.021636 190.135223 59.186531 172.01805 71.682182 
C 153.900876 84.177833 141.185073 103.095883 136.455799 124.590237 
L 221.4 143.28 
L 234.109016 57.237537 
z
" style="fill:#ffffb3;stroke:#ffffff;stroke-linejoin:miter;"/>
   </g>
   <g id="patch_4">
    <path d="M 136.455799 124.590237 
C 133.217463 139.308337 133.859308 154.618479 138.318164 169.013891 
C 142.777021 183.409303 150.901652 196.401716 161.892459 206.712461 
L 221.4 143.28 
L 136.455799 124.590237 
z
" style="fill:#bebada;stroke:#ffffff;stroke-linejoin:miter;"/>
   </g>
   <g id="patch_5">
    <path d="M 161.892459 206.712461 
C 169.660679 214.000018 178.701928 219.798971 188.565221 223.820064 
C 198.428515 227.841157 208.947086 230.016401 219.596262 230.237295 
L 221.4 143.28 
L 161.892459 206.712461 
z
" style="fill:#fb8072;stroke:#ffffff;stroke-linejoin:miter;"/>
   </g>
   <g id="patch_6">
    <path d="M 219.596262 230.237295 
C 223.870615 230.325957 228.145695 230.099342 232.386721 229.559294 
C 236.627747 229.019246 240.823189 228.167233 244.938914 227.010186 
L 221.4 143.28 
L 219.596262 230.237295 
z
" style="fill:#80b1d3;stroke:#ffffff;stroke-linejoin:miter;"/>
   </g>
   <g id="patch_7">
    <path d="M 244.938914 227.010186 
C 257.18934 223.566247 268.535995 217.475392 278.176045 209.168582 
C 287.816094 200.861773 295.516684 190.539659 300.732955 178.932586 
L 221.4 143.28 
L 244.938914 227.010186 
z
" style="fill:#fdb462;stroke:#ffffff;stroke-linejoin:miter;"/>
   </g>
   <g id="patch_8">
    <path d="M 300.732955 178.932586 
C 303.244979 173.342912 305.159225 167.503368 306.443775 161.511318 
C 307.728324 155.519269 308.375999 149.408203 308.376 143.280012 
L 221.4 143.28 
L 300.732955 178.932586 
z
" style="fill:#b3de69;stroke:#ffffff;stroke-linejoin:miter;"/>
   </g>
   <g id="text_2">
    <text style="fill:#262626;font-family:Arial;font-size:18px;font-stretch:normal;font-style:normal;font-weight:normal;text-anchor:middle;" transform="rotate(-0, 260.904895, 113.834892)" x="260.904895" y="113.834892">23%</text>
   </g>
   <g id="text_3">
    <text style="fill:#262626;font-family:Arial;font-size:18px;font-stretch:normal;font-style:normal;font-weight:normal;text-anchor:middle;" transform="rotate(-0, 191.77083, 104.97459)" x="191.77083" y="104.97459">24%</text>
   </g>
   <g id="text_4">
    <text style="fill:#262626;font-family:Arial;font-size:18px;font-stretch:normal;font-style:normal;font-weight:normal;text-anchor:middle;" transform="rotate(-0, 171.550899, 163.373616)" x="171.550899" y="163.373616">16%</text>
   </g>
   <g id="text_5">
    <text style="fill:#262626;font-family:Arial;font-size:18px;font-stretch:normal;font-style:normal;font-weight:normal;text-anchor:middle;" transform="rotate(-0, 201.699133, 196.25732)" x="201.699133" y="196.25732">12%</text>
   </g>
   <g id="text_6">
    <text style="fill:#262626;font-family:Arial;font-size:18px;font-stretch:normal;font-style:normal;font-weight:normal;text-anchor:middle;" transform="rotate(-0, 227.992033, 199.700858)" x="227.992033" y="199.700858">5%</text>
   </g>
   <g id="text_7">
    <text style="fill:#262626;font-family:Arial;font-size:18px;font-stretch:normal;font-style:normal;font-weight:normal;text-anchor:middle;" transform="rotate(-0, 255.465627, 187.466431)" x="255.465627" y="187.466431">14%</text>
   </g>
   <g id="text_8">
    <text style="fill:#262626;font-family:Arial;font-size:18px;font-stretch:normal;font-style:normal;font-weight:normal;text-anchor:middle;" transform="rotate(-0, 272.426265, 158.872072)" x="272.426265" y="158.872072">7%</text>
   </g>
  </g>
 </g>
</svg>
